{"accessors" : [{"bufferView" : 0, "byteOffset" : 0, "componentType" : 5123, "count" : 660, "type" : "SCALAR", "max" : [659], "min" : [0]}, {"bufferView" : 1, "byteOffset" : 0, "componentType" : 5126, "count" : 660, "type" : "VEC3", "max" : [2.2635340690612793, 2.000000476837158, 3.5051169395446777], "min" : [-2.2635340690612793, -2, 1.4842953532934189E-08], "name" : "POSITION"}, {"bufferView" : 1, "byteOffset" : 12, "componentType" : 5126, "count" : 660, "type" : "VEC3", "max" : [1.0000044107437134, 1.0000044107437134, 1.0000041723251343], "min" : [-1.0000044107437134, -1.0000044107437134, -1.0000044107437134], "name" : "NORMAL"}, {"bufferView" : 1, "byteOffset" : 24, "componentType" : 5126, "count" : 660, "type" : "VEC3", "max" : [0, 1, 0], "min" : [0, 1, 0], "name" : "COLOR_0"}, {"bufferView" : 1, "byteOffset" : 36, "componentType" : 5126, "count" : 660, "type" : "VEC2", "max" : [0.7890820503234863, -0.0624273456633091], "min" : [0.3981129825115204, -0.9438249468803406], "name" : "TEXCOORD_0"}, {"bufferView" : 0, "byteOffset" : 1320, "componentType" : 5123, "count" : 1716, "type" : "SCALAR", "max" : [1715], "min" : [0]}, {"bufferView" : 2, "byteOffset" : 0, "componentType" : 5126, "count" : 1716, "type" : "VEC3", "max" : [0.886683464050293, 0.8732127547264099, 1], "min" : [-0.886683464050293, -0.8732128143310547, 0], "name" : "POSITION"}, {"bufferView" : 2, "byteOffset" : 12, "componentType" : 5126, "count" : 1716, "type" : "VEC3", "max" : [1.0000044107437134, 0.9848121404647827, 1.0000044107437134], "min" : [-1.0000044107437134, -0.9848122000694275, -1.0000044107437134], "name" : "NORMAL"}, {"bufferView" : 2, "byteOffset" : 24, "componentType" : 5126, "count" : 1716, "type" : "VEC3", "max" : [1, 0, 1], "min" : [1, 0, 1], "name" : "COLOR_0"}, {"bufferView" : 2, "byteOffset" : 36, "componentType" : 5126, "count" : 1716, "type" : "VEC2", "max" : [0.621670663356781, -0.5571183562278748], "min" : [0.010802820324897766, -0.942714512348175], "name" : "TEXCOORD_0"}, {"bufferView" : 0, "byteOffset" : 4752, "componentType" : 5123, "count" : 420, "type" : "SCALAR", "max" : [419], "min" : [0]}, {"bufferView" : 3, "byteOffset" : 0, "componentType" : 5126, "count" : 420, "type" : "VEC3", "max" : [0.7563000917434692, 0.7448102235794067, 0.7688391804695129], "min" : [-0.7563000917434692, -0.7448102831840515, 0.23469530045986176], "name" : "POSITION"}, {"bufferView" : 3, "byteOffset" : 12, "componentType" : 5126, "count" : 420, "type" : "VEC3", "max" : [1.0000044107437134, 0.9848121404647827, 1.0000044107437134], "min" : [-1.0000044107437134, -0.9848121404647827, -1.0000044107437134], "name" : "NORMAL"}, {"bufferView" : 3, "byteOffset" : 24, "componentType" : 5126, "count" : 420, "type" : "VEC3", "max" : [1, 1, 0], "min" : [1, 1, 0], "name" : "COLOR_0"}, {"bufferView" : 3, "byteOffset" : 36, "componentType" : 5126, "count" : 420, "type" : "VEC2", "max" : [0.9499504566192627, -0.418585866689682], "min" : [0.15290150046348572, -0.9100965261459351], "name" : "TEXCOORD_0"}, {"bufferView" : 0, "byteOffset" : 5592, "componentType" : 5123, "count" : 420, "type" : "SCALAR", "max" : [419], "min" : [0]}, {"bufferView" : 4, "byteOffset" : 0, "componentType" : 5126, "count" : 420, "type" : "VEC3", "max" : [0.7688391804695129, 0.7448102235794067, 0.7563000917434692], "min" : [0.23469525575637817, -0.7448103427886963, -0.7563000917434692], "name" : "POSITION"}, {"bufferView" : 4, "byteOffset" : 12, "componentType" : 5126, "count" : 420, "type" : "VEC3", "max" : [1.0000044107437134, 0.9848121404647827, 1.0000044107437134], "min" : [-1.0000044107437134, -0.9848121404647827, -1.0000044107437134], "name" : "NORMAL"}, {"bufferView" : 4, "byteOffset" : 24, "componentType" : 5126, "count" : 420, "type" : "VEC3", "max" : [1, 1, 0], "min" : [1, 1, 0], "name" : "COLOR_0"}, {"bufferView" : 4, "byteOffset" : 36, "componentType" : 5126, "count" : 420, "type" : "VEC2", "max" : [0.9914121031761169, -0.3079736530780792], "min" : [0.32983705401420593, -0.9099084734916687], "name" : "TEXCOORD_0"}, {"bufferView" : 0, "byteOffset" : 6432, "componentType" : 5123, "count" : 516, "type" : "SCALAR", "max" : [515], "min" : [0]}, {"bufferView" : 5, "byteOffset" : 0, "componentType" : 5126, "count" : 516, "type" : "VEC3", "max" : [1.8440443277359009, 2.4944212436676025, 2.0127270221710205], "min" : [-1.84404456615448, -1.8465012311935425, 1.0227229595184326], "name" : "POSITION"}, {"bufferView" : 5, "byteOffset" : 12, "componentType" : 5126, "count" : 516, "type" : "VEC3", "max" : [1.0000044107437134, 1.0000044107437134, 1.0000044107437134], "min" : [-1.0000042915344238, -1.0000044107437134, -1.0000044107437134], "name" : "NORMAL"}, {"bufferView" : 5, "byteOffset" : 24, "componentType" : 5126, "count" : 516, "type" : "VEC3", "max" : [0, 1, 1], "min" : [0, 1, 1], "name" : "COLOR_0"}, {"bufferView" : 5, "byteOffset" : 36, "componentType" : 5126, "count" : 516, "type" : "VEC2", "max" : [0.8639348745346069, -0.005730862729251385], "min" : [0.005389779806137085, -0.8479021787643433], "name" : "TEXCOORD_0"}, {"bufferView" : 0, "byteOffset" : 7464, "componentType" : 5123, "count" : 996, "type" : "SCALAR", "max" : [995], "min" : [0]}, {"bufferView" : 6, "byteOffset" : 0, "componentType" : 5126, "count" : 996, "type" : "VEC3", "max" : [1.8742541074752808, -0.034219179302453995, 2.356602668762207], "min" : [-0.20168662071228027, -0.23533174395561218, -0.07109157741069794], "name" : "POSITION"}, {"bufferView" : 6, "byteOffset" : 12, "componentType" : 5126, "count" : 996, "type" : "VEC3", "max" : [0.9999638795852661, 0.020188013091683388, 0.9998162388801575], "min" : [-0.9998728036880493, -1.0000044107437134, -0.9999420642852783], "name" : "NORMAL"}, {"bufferView" : 6, "byteOffset" : 24, "componentType" : 5126, "count" : 996, "type" : "VEC3", "max" : [0.8392156958580017, 0.5647059082984924, 1], "min" : [0.8392156958580017, 0.5647059082984924, 1], "name" : "COLOR_0"}, {"bufferView" : 6, "byteOffset" : 36, "componentType" : 5126, "count" : 996, "type" : "VEC2", "max" : [0.8568181991577148, -0.35099276900291443], "min" : [0.009824605658650398, -0.542284369468689], "name" : "TEXCOORD_0"}, {"bufferView" : 0, "byteOffset" : 9456, "componentType" : 5123, "count" : 420, "type" : "SCALAR", "max" : [419], "min" : [0]}, {"bufferView" : 7, "byteOffset" : 0, "componentType" : 5126, "count" : 420, "type" : "VEC3", "max" : [0.15006783604621887, 0.14778928458690643, 0.25213730335235596], "min" : [-0.1500677466392517, -0.14778859913349152, 0.025968043133616447], "name" : "POSITION"}, {"bufferView" : 7, "byteOffset" : 12, "componentType" : 5126, "count" : 420, "type" : "VEC3", "max" : [1.0000044107437134, 0.9848121404647827, 1.0000044107437134], "min" : [-1.0000044107437134, -0.9848122000694275, -1.0000044107437134], "name" : "NORMAL"}, {"bufferView" : 7, "byteOffset" : 24, "componentType" : 5126, "count" : 420, "type" : "VEC3", "max" : [0, 0, 0], "min" : [0, 0, 0], "name" : "COLOR_0"}, {"bufferView" : 7, "byteOffset" : 36, "componentType" : 5126, "count" : 420, "type" : "VEC2", "max" : [0.5368741154670715, -0.007153268437832594], "min" : [0.08413124829530716, -0.948551595211029], "name" : "TEXCOORD_0"}, {"bufferView" : 0, "byteOffset" : 10296, "componentType" : 5123, "count" : 4812, "type" : "SCALAR", "max" : [4811], "min" : [0]}, {"bufferView" : 8, "byteOffset" : 0, "componentType" : 5126, "count" : 4812, "type" : "VEC3", "max" : [3.497387409210205, 2, 6], "min" : [-3.497387409210205, -2, -0.14679011702537537], "name" : "POSITION"}, {"bufferView" : 8, "byteOffset" : 12, "componentType" : 5126, "count" : 4812, "type" : "VEC3", "max" : [1.0000044107437134, 1.0000044107437134, 1.0000044107437134], "min" : [-1.0000044107437134, -1.0000044107437134, -1.0000044107437134], "name" : "NORMAL"}, {"bufferView" : 8, "byteOffset" : 24, "componentType" : 5126, "count" : 4812, "type" : "VEC3", "max" : [0.8627452850341797, 0, 0], "min" : [0.8627451062202454, 0, 0], "name" : "COLOR_0"}, {"bufferView" : 8, "byteOffset" : 36, "componentType" : 5126, "count" : 4812, "type" : "VEC2", "max" : [0.9944756031036377, -0.004999998025596142], "min" : [0.004999999888241291, -0.9977467060089111], "name" : "TEXCOORD_0"}, {"bufferView" : 0, "byteOffset" : 19920, "componentType" : 5123, "count" : 4566, "type" : "SCALAR", "max" : [4565], "min" : [0]}, {"bufferView" : 9, "byteOffset" : 0, "componentType" : 5126, "count" : 4566, "type" : "VEC3", "max" : [2.708538770675659, 2.708221197128296, 2.116872787475586], "min" : [-2.708538770675659, -3.085174322128296, 0.009019851684570312], "name" : "POSITION"}, {"bufferView" : 9, "byteOffset" : 12, "componentType" : 5126, "count" : 4566, "type" : "VEC3", "max" : [1.0000044107437134, 0.9999756813049316, 1.0000044107437134], "min" : [-1.0000044107437134, -1.0000044107437134, -1.0000044107437134], "name" : "NORMAL"}, {"bufferView" : 9, "byteOffset" : 24, "componentType" : 5126, "count" : 4566, "type" : "VEC3", "max" : [0, 0, 0.6666666865348816], "min" : [0, 0, 0.6666666865348816], "name" : "COLOR_0"}, {"bufferView" : 9, "byteOffset" : 36, "componentType" : 5126, "count" : 4566, "type" : "VEC2", "max" : [0.9904979467391968, -0.454142689704895], "min" : [0.008167173713445663, -0.9133428931236267], "name" : "TEXCOORD_0"}], "asset" : {"generator" : "Aspose.3D 23.2", "version" : "2.0"}, "buffers" : [{"uri" : "data:application/octet-stream;base64,", "byteLength" : 668236}], "bufferViews" : [{"buffer" : 0, "byteOffset" : 0, "byteLength" : 29052, "target" : 34963}, {"buffer" : 0, "byteOffset" : 29056, "byteLength" : 29040, "byteStride" : 44, "target" : 34962}, {"buffer" : 0, "byteOffset" : 58100, "byteLength" : 75504, "byteStride" : 44, "target" : 34962}, {"buffer" : 0, "byteOffset" : 133608, "byteLength" : 18480, "byteStride" : 44, "target" : 34962}, {"buffer" : 0, "byteOffset" : 152092, "byteLength" : 18480, "byteStride" : 44, "target" : 34962}, {"buffer" : 0, "byteOffset" : 170576, "byteLength" : 22704, "byteStride" : 44, "target" : 34962}, {"buffer" : 0, "byteOffset" : 193284, "byteLength" : 43824, "byteStride" : 44, "target" : 34962}, {"buffer" : 0, "byteOffset" : 237112, "byteLength" : 18480, "byteStride" : 44, "target" : 34962}, {"buffer" : 0, "byteOffset" : 255596, "byteLength" : 211728, "byteStride" : 44, "target" : 34962}, {"buffer" : 0, "byteOffset" : 467328, "byteLength" : 200904, "byteStride" : 44, "target" : 34962}], "materials" : [{"name" : "Material #3", "pbrMetallicRoughness" : {"baseColorFactor" : [1, 1, 1, 1], "metallicFactor" : 0, "roughnessFactor" : 0}, "emissiveFactor" : [0, 0, 0], "alphaMode" : "OPAQUE", "doubleSided" : false}], "meshes" : [{"primitives" : [{"attributes" : {"POSITION" : 1, "NORMAL" : 2, "COLOR_0" : 3, "TEXCOORD_0" : 4}, "indices" : 0, "mode" : 4}], "name" : ""}, {"primitives" : [{"attributes" : {"POSITION" : 6, "NORMAL" : 7, "COLOR_0" : 8, "TEXCOORD_0" : 9}, "indices" : 5, "mode" : 4}], "name" : ""}, {"primitives" : [{"attributes" : {"POSITION" : 11, "NORMAL" : 12, "COLOR_0" : 13, "TEXCOORD_0" : 14}, "indices" : 10, "mode" : 4}], "name" : ""}, {"primitives" : [{"attributes" : {"POSITION" : 16, "NORMAL" : 17, "COLOR_0" : 18, "TEXCOORD_0" : 19}, "indices" : 15, "mode" : 4}], "name" : ""}, {"primitives" : [{"attributes" : {"POSITION" : 21, "NORMAL" : 22, "COLOR_0" : 23, "TEXCOORD_0" : 24}, "indices" : 20, "mode" : 4}], "name" : ""}, {"primitives" : [{"attributes" : {"POSITION" : 26, "NORMAL" : 27, "COLOR_0" : 28, "TEXCOORD_0" : 29}, "indices" : 25, "mode" : 4}], "name" : ""}, {"primitives" : [{"attributes" : {"POSITION" : 31, "NORMAL" : 32, "COLOR_0" : 33, "TEXCOORD_0" : 34}, "indices" : 30, "mode" : 4}], "name" : ""}, {"primitives" : [{"attributes" : {"POSITION" : 36, "NORMAL" : 37, "COLOR_0" : 38, "TEXCOORD_0" : 39}, "indices" : 35, "mode" : 4}], "name" : ""}, {"primitives" : [{"attributes" : {"POSITION" : 41, "NORMAL" : 42, "COLOR_0" : 43, "TEXCOORD_0" : 44}, "indices" : 40, "material" : 0, "mode" : 4}], "name" : ""}], "nodes" : [{"matrix" : [1, 0, 0, 0, 0, 6.123233995736766E-17, -1, 0, 0, 1, 6.123233995736766E-17, 0, 0, 0, 0, 1], "mesh" : 0, "name" : "legs_lp"}, {"matrix" : [1.3542079999999999, 0, 0, 0, 0, 8.292132462898694E-17, -1.3542079999999999, 0, 0, 1, 6.123233995736766E-17, 0, 0, 9.47122859954834, -2.8378794869610147E-09, 1], "mesh" : 1, "name" : "neck_lp"}, {"matrix" : [4.371138834797025E-08, 0.999999999999999, 6.12323399573676E-17, 0, 0, 6.123233995736766E-17, -1, 0, -0.999999999999999, 4.371138834797025E-08, 2.676550591331434E-24, 0, -2.2267820835113525, 11.612430572509766, 0, 1], "mesh" : 2, "name" : "ear_lp"}, {"matrix" : [1, 0, 0, 0, 0, 6.123233995736766E-17, -1, 0, 0, 1, 6.123233995736766E-17, 0, 2.2269999980926514, 11.612430572509766, 0, 1], "mesh" : 3, "name" : "ear2_lp"}, {"matrix" : [1, 0, 0, 0, 0, 6.123233995736766E-17, -1, 0, 0, 1, 6.123233995736766E-17, 0, 0, 10.52944564819336, -1.1102230246251565E-16, 1], "mesh" : 4, "name" : "button_lp"}, {"matrix" : [1.072426, 0, 0, 0, 0, 6.123233995736766E-17, -1, 0, 0, 1.072426, 6.566715341111997E-17, 0, -1.2155625820159912, 5.668076992034912, 1.778357982635498, 1], "mesh" : 5, "name" : "r_lp"}, {"matrix" : [0.9999999999998389, -2.8421709395638068E-14, -5.676961336574999E-07, 0, -6.0374823465501495E-12, 0.9999999999429141, -1.0685124834059287E-05, 0, 5.676961336253961E-07, 1.0685124834060991E-05, 0.999999999942753, 0, 0, 11.828564643859863, 2.8387985229492188, 1], "mesh" : 6, "name" : "spray_lp"}, {"matrix" : [1, 0, 0, 0, 0, 6.123233995736766E-17, -1, 0, 0, 1, 6.123233995736766E-17, 0, 0, 3.4708003997802734, 0, 1], "mesh" : 7, "name" : "body_lp"}, {"matrix" : [1, 0, 0, 0, 0, 6.123233995736766E-17, -1, 0, 0, 1, 6.123233995736766E-17, 0, 0, 10.461082458496094, -1.4901161249358807E-08, 1], "mesh" : 8, "name" : "head_lp"}], "scene" : 0, "scenes" : [{"nodes" : [0, 1, 2, 3, 4, 5, 6, 7, 8]}]}